Coordinates
version=1
nRows=15
nColumns=42
inDegrees=yes

Units are S.I. units (second, meters, Newtons, ...)
If the header above contains a line with 'inDegrees', this indicates whether rotational values are in degrees (yes) or radians (no).

endheader
time	pelvis_tilt	pelvis_list	pelvis_rotation	pelvis_tx	pelvis_ty	pelvis_tz	hip_flexion_r	hip_adduction_r	hip_rotation_r	knee_angle_r	knee_adduction_r	knee_angle_r_beta	ankle_angle_r	subtalar_angle_r	mtp_angle_r	hip_flexion_l	hip_adduction_l	hip_rotation_l	knee_angle_l	knee_adduction_l	knee_angle_l_beta	ankle_angle_l	subtalar_angle_l	mtp_angle_l	lumbar_extension	lumbar_bending	lumbar_rotation	arm_flex_r	arm_add_r	arm_rot_r	elbow_flex_r	pro_sup_r	wrist_flex_r	wrist_dev_r	arm_flex_l	arm_add_l	arm_rot_l	elbow_flex_l	pro_sup_l	wrist_flex_l	wrist_dev_l
      0.60000000	     -3.01276520	     -1.04808647	     -1.82437946	     -0.70404786	      0.85743059	     -0.39203493	     27.18680586	     -1.05118779	     -8.18654891	     21.49682737	      6.54485278	      0.37519042	      1.89512158	     -5.39053288	     -7.83034123	     -9.75515505	     -3.38337954	     -0.17521208	      4.04337826	     12.00268641	      0.07057026	     18.10161531	     -0.67090080	     -7.83034123	     -2.61322994	      3.23652953	     -1.61885708	     -7.42772827	    -17.90118083	      5.09137916	     36.26070660	     90.00000001	      0.00000000	      0.00000000	      4.67512014	    -11.28967692	    -17.12095505	     37.23319427	     90.00000001	      0.00000000	      0.00000000
      0.61000000	     -3.34175084	     -0.62605151	     -1.59163131	     -0.69239600	      0.85497691	     -0.39225852	     27.40246045	     -1.64828727	     -8.50365863	     18.76919733	      6.71189600	      0.32758429	      1.60903132	     -4.08404055	     -7.82452644	    -10.08728598	     -2.84769438	     -0.11045697	      4.36076843	     11.84355745	      0.07610977	     18.39737419	     -0.49533032	     -7.82452644	     -2.10046441	      2.92162799	     -2.10193436	     -7.89214008	    -18.08963770	      4.87896103	     36.34042834	     90.00000001	      0.00000000	      0.00000000	      4.87888038	    -11.40688518	    -16.92789282	     37.43744406	     90.00000001	      0.00000000	      0.00000000
      0.62000000	     -3.06496008	     -0.76446136	     -1.20544520	     -0.68010429	      0.85329698	     -0.39190695	     26.56891507	     -1.58737958	     -8.86945730	     15.75757411	      6.75511444	      0.27502155	      1.62499849	     -2.73403734	     -7.81058243	    -11.21386607	     -3.21008823	      0.10343629	      4.51359171	     12.14817710	      0.07877704	     18.74830978	     -0.25046441	     -7.81058243	     -2.25591555	      3.14497029	     -2.63492072	     -8.26531027	    -18.15897724	      4.29438801	     36.27094455	     90.00000001	      0.00000000	      0.00000000	      5.14413314	    -11.55608727	    -16.58727057	     37.67081795	     90.00000001	      0.00000000	      0.00000000
      0.63000000	     -3.14888830	     -0.63848857	     -0.88984636	     -0.66799530	      0.85123953	     -0.39177652	     26.32473074	     -1.82851502	     -9.07257855	     13.46188854	      6.81408397	      0.23495428	      1.55432603	     -1.52447931	     -7.79787610	    -11.81122750	     -3.16749997	      0.33450114	      4.89176040	     12.20284199	      0.08537733	     18.99390838	     -0.10378331	     -7.79787610	     -2.01084689	      3.11900445	     -3.13842715	     -8.63544312	    -18.29651445	      3.90463699	     36.24845750	     90.00000001	      0.00000000	      0.00000000	      5.29266073	    -11.67096348	    -16.29664291	     37.91606713	     90.00000001	      0.00000000	      0.00000000
      0.64000000	     -3.45069518	     -0.39686625	     -0.65729394	     -0.65591802	      0.84901965	     -0.39170989	     26.44789013	     -2.21253976	     -9.15918882	     11.80532204	      6.92951645	      0.20604174	      1.42264689	     -0.49100110	     -7.79302100	    -12.10019863	     -2.93381229	      0.62970386	      5.39816473	     12.13598788	      0.09421575	     19.08959313	     -0.02335233	     -7.79302100	     -1.52142042	      2.99195735	     -3.58013260	     -9.01781632	    -18.49190516	      3.67956317	     36.28309297	     90.00000001	      0.00000000	      0.00000000	      5.34488680	    -11.74015278	    -16.10909581	     38.14530034	     90.00000001	      0.00000000	      0.00000000
      0.65000000	     -3.60754125	     -0.21303774	     -0.72404227	     -0.64388543	      0.84700422	     -0.39112121	     26.80197629	     -2.36530047	     -9.37222457	     11.34215041	      6.83872233	      0.19795787	      1.45539164	     -0.25671122	     -7.79089215	    -12.58503221	     -2.82682969	      0.74305222	      5.88152069	     12.30179770	      0.10265190	     19.05754136	      0.03527367	     -7.79089215	     -1.24182888	      2.91396734	     -3.67402525	     -9.30085729	    -18.74026461	      3.57200836	     36.18949090	     90.00000001	      0.00000000	      0.00000000	      5.44849523	    -11.78400395	    -16.05979168	     38.34118631	     90.00000001	      0.00000000	      0.00000000
      0.66000000	     -3.88329949	     -0.26573534	     -0.18937327	     -0.63146105	      0.84537009	     -0.39093394	     26.48459949	     -2.48971229	     -9.15112352	      9.70418442	      6.92903967	      0.16936997	      1.44816617	      1.03417543	     -7.78646626	    -12.65389950	     -3.04123877	      1.35014315	      6.83067988	     12.26049895	      0.11921785	     18.89989843	     -0.05245930	     -7.78646626	     -0.76230664	      3.06526877	     -4.31842665	     -9.67030814	    -18.81302824	      3.20214604	     36.14503651	     90.00000001	      0.00000000	      0.00000000	      5.37598272	    -11.82651671	    -15.72178408	     38.73947542	     90.00000001	      0.00000000	      0.00000000
      0.67000000	     -3.80180351	     -0.73980927	      0.12924916	     -0.61885992	      0.84431700	     -0.39004219	     26.05200291	     -1.95257994	     -9.27247275	      9.08041654	      6.66086956	      0.15848317	      1.33089998	      1.60383370	     -7.77709887	    -13.15431015	     -3.89390413	      1.69877528	      7.76196355	     12.62664141	      0.13547182	     18.65503901	     -0.36771953	     -7.77709887	     -0.72928721	      3.66012740	     -4.79351125	     -9.78485933	    -18.87756098	      2.54692692	     35.90754821	     90.00000001	      0.00000000	      0.00000000	      5.24836283	    -11.91807356	    -15.30825810	     39.11000837	     90.00000001	      0.00000000	      0.00000000
      0.68000000	     -3.92009530	     -0.73010080	      0.06535292	     -0.60614170	      0.84314975	     -0.38925337	     26.11545245	     -1.90680014	     -9.03264811	      9.31737386	      6.61603579	      0.16261885	      1.29196981	      1.71942557	     -7.77550692	    -13.60111652	     -3.95376589	      2.07414171	      8.34853362	     12.67023113	      0.14570940	     18.46294797	     -0.26723239	     -7.77550692	     -0.42865862	      3.77019441	     -4.87293668	    -10.03566062	    -19.11204753	      2.45995906	     35.81310305	     90.00000001	      0.00000000	      0.00000000	      5.13911418	    -11.89273147	    -15.29169338	     39.20025953	     90.00000001	      0.00000000	      0.00000000
      0.69000000	     -4.07723881	     -1.16131540	      0.43048052	     -0.59378375	      0.84240664	     -0.38841657	     26.01146157	     -1.44412706	     -8.81513294	      9.46954831	      6.39125696	      0.16527480	      1.33838238	      1.79986235	     -7.76960020	    -13.33789940	     -4.78277471	      2.35403263	     10.20202491	     13.07809448	      0.17805893	     17.15115228	     -0.87178742	     -7.76960020	     -0.18508432	      4.32177386	     -5.32967903	    -10.11812414	    -19.21068118	      2.10555430	     35.63197470	     90.00000001	      0.00000000	      0.00000000	      4.88569013	    -11.85024810	    -15.07294023	     39.81525149	     90.00000001	      0.00000000	      0.00000000
      0.70000000	     -4.12998392	     -1.46580731	      0.43170990	     -0.58111566	      0.84199387	     -0.38764758	     25.89695604	     -1.07974814	     -8.31179070	     10.11848121	      6.35986552	      0.17660081	      1.19009641	      1.78261629	     -7.76642790	    -13.49511232	     -5.21012014	      2.92726335	     11.40006738	     13.21229308	      0.19896871	     16.46969532	     -1.05792637	     -7.76642790	     -0.03136806	      4.82363902	     -5.36610188	    -10.21844693	    -19.45301079	      1.92359657	     35.42935941	     90.00000001	      0.00000000	      0.00000000	      4.72394729	    -11.67046660	    -14.97196007	     40.08975919	     90.00000001	      0.00000000	      0.00000000
      0.71000000	     -4.14217170	     -1.95777292	      0.55313421	     -0.56818629	      0.84191322	     -0.38618403	     25.67483721	     -0.39779903	     -8.19463799	     10.93748410	      6.08425585	      0.19089511	      1.01562513	      1.15547530	     -7.76098755	    -13.26488550	     -6.16424465	      2.72725919	     13.57376885	     13.77415236	      0.23690696	     14.76231230	     -2.13768507	     -7.76098755	      0.12081822	      5.38636023	     -5.57013928	    -10.20816719	    -19.50443714	      1.62311877	     35.08429002	     90.00000001	      0.00000000	      0.00000000	      4.29601705	    -11.64250328	    -14.85734204	     40.59953700	     90.00000001	      0.00000000	      0.00000000
      0.72000000	     -4.21362864	     -2.46471434	      0.57498153	     -0.55519224	      0.84211623	     -0.38503293	     25.43350416	      0.26657177	     -7.71617175	     11.77711988	      5.97662176	      0.20554952	      0.63977486	      0.44142525	     -7.75493301	    -12.94540019	     -6.91838933	      2.80156212	     15.70224021	     14.04194459	      0.27405579	     13.18131831	     -3.25368903	     -7.75493301	      0.34124100	      6.05440842	     -5.61108905	    -10.19491054	    -19.65416096	      1.33980900	     34.73423058	     90.00000001	      0.00000000	      0.00000000	      3.89378299	    -11.44856642	    -14.74742033	     40.99807910	     90.00000001	      0.00000000	      0.00000000
      0.73000000	     -4.21990730	     -2.90908004	      0.52975362	     -0.54218408	      0.84260931	     -0.38363681	     25.08390084	      0.90946171	     -7.13168682	     12.67933461	      5.92292676	      0.22129614	      0.29901788	     -0.55059620	     -7.74836239	    -12.51501316	     -7.64423238	      2.66606269	     18.18600456	     14.36541381	      0.31740566	     11.17848742	     -4.56027247	     -7.74836239	      0.46125948	      6.60383957	     -5.56704585	    -10.12741453	    -19.77391946	      1.11941910	     34.38015737	     90.00000001	      0.00000000	      0.00000000	      3.43513501	    -11.29810283	    -14.70833966	     41.41608065	     90.00000001	      0.00000000	      0.00000000
      0.74000000	     -4.45118228	     -3.26097595	      0.37263635	     -0.52937844	      0.84319077	     -0.38218375	     24.76988174	      1.52025898	     -5.32861034	     13.18846096	      6.11655566	      0.23018207	     -0.65024892	     -3.34912745	     -7.72812140	    -11.68407097	     -8.28336082	      2.73779941	     20.83720207	     14.87687420	      0.36367778	      9.02582011	     -6.41825247	     -7.72812140	      0.82273246	      7.07477973	     -5.37155650	    -10.06268772	    -19.85530027	      0.87357840	     34.00009716	     90.00000001	      0.00000000	      0.00000000	      2.99611155	    -11.06551814	    -14.71760262	     41.71454646	     90.00000001	      0.00000000	      0.00000000
